<?xml version="1.0" encoding="UTF-8"?><svg id="scroll_window" xmlns="http://www.w3.org/2000/svg" xmlns:xlink="http://www.w3.org/1999/xlink" viewBox="0 0 929.01 986.58"><defs><radialGradient id="radial-gradient" cx="612.58" cy="833.7" fx="612.58" fy="833.7" r="523.16" gradientUnits="userSpaceOnUse"><stop offset=".09" stop-color="#9eaeda"/><stop offset=".2" stop-color="#b3bfe0"/><stop offset=".35" stop-color="#c8d0e7"/><stop offset=".51" stop-color="#d7dcec"/><stop offset=".7" stop-color="#e0e3ef"/><stop offset=".99" stop-color="#e3e6f0"/></radialGradient><linearGradient id="linear-gradient" x1="650.42" y1="531.4" x2="659.14" y2="1093.04" gradientUnits="userSpaceOnUse"><stop offset="0" stop-color="#e3e6f0"/><stop offset=".44" stop-color="#e1e4ef"/><stop offset=".6" stop-color="#dadeed"/><stop offset=".71" stop-color="#ced5e9"/><stop offset=".81" stop-color="#bdc7e4"/><stop offset=".88" stop-color="#a7b6dd"/><stop offset=".91" stop-color="#9eaeda"/></linearGradient><linearGradient id="linear-gradient-2" x1="719.27" y1="264.32" x2="724.18" y2="581.15" gradientTransform="translate(6.07 40.41)" xlink:href="#linear-gradient"/><radialGradient id="radial-gradient-2" cx="302.4" cy="337.03" fx="302.4" fy="337.03" r="72.97" gradientUnits="userSpaceOnUse"><stop offset=".09" stop-color="#9eaeda"/><stop offset=".12" stop-color="#a7b6dd"/><stop offset=".19" stop-color="#bdc7e4"/><stop offset=".29" stop-color="#ced5e9"/><stop offset=".4" stop-color="#dadeed"/><stop offset=".56" stop-color="#e1e4ef"/><stop offset=".99" stop-color="#e3e6f0"/></radialGradient><radialGradient id="radial-gradient-3" cx="454.63" cy="164.63" fx="454.63" fy="164.63" r="93.28" xlink:href="#radial-gradient-2"/><linearGradient id="linear-gradient-3" x1="173.82" y1="48.67" x2="356.55" y2="284.05" gradientTransform="translate(-30.13 75.16) rotate(-15.3)" xlink:href="#linear-gradient"/><linearGradient id="linear-gradient-4" x1="486.6" y1="1149.47" x2="1484.87" y2="392.38" gradientTransform="translate(-349 -351.27)" gradientUnits="userSpaceOnUse"><stop offset="0" stop-color="#cb0c9f"/><stop offset="1" stop-color="#921ba6"/></linearGradient><linearGradient id="linear-gradient-5" x1="901.73" y1="869.13" x2="892.79" y2="1025.46" xlink:href="#linear-gradient-4"/><linearGradient id="linear-gradient-6" x1="850.62" y1="866.21" x2="841.69" y2="1022.54" xlink:href="#linear-gradient-4"/><linearGradient id="linear-gradient-7" x1="277.75" y1="887.17" x2="418.98" y2="1051.16" xlink:href="#linear-gradient"/><linearGradient id="linear-gradient-8" x1="672.61" y1="225.36" x2="887.93" y2="225.36" gradientTransform="matrix(1,0,0,1,0,0)" xlink:href="#linear-gradient-4"/><linearGradient id="linear-gradient-9" x1="738.31" y1="141.03" x2="842.13" y2="272.83" gradientUnits="userSpaceOnUse"><stop offset="0" stop-color="#cb0c9f"/><stop offset="1" stop-color="#5e116b"/></linearGradient><linearGradient id="linear-gradient-10" x1="743.56" y1="147.7" x2="836.62" y2="265.83" gradientTransform="matrix(1,0,0,1,0,0)" xlink:href="#linear-gradient-4"/><radialGradient id="radial-gradient-4" cx="476.65" cy="77.29" fx="476.65" fy="77.29" r="420.73" gradientTransform="translate(4.43 233.03) rotate(-20.14)" gradientUnits="userSpaceOnUse"><stop offset=".17" stop-color="#9eaeda"/><stop offset=".19" stop-color="#a7b6dd"/><stop offset=".26" stop-color="#bdc7e4"/><stop offset=".35" stop-color="#ced5e9"/><stop offset=".45" stop-color="#dadeed"/><stop offset=".59" stop-color="#e1e4ef"/><stop offset=".99" stop-color="#e3e6f0"/></radialGradient><radialGradient id="radial-gradient-5" cx="649.79" cy="209.98" fx="649.79" fy="209.98" r="151.32" gradientTransform="translate(4.43 233.03) rotate(-20.14)" xlink:href="#radial-gradient-2"/><radialGradient id="radial-gradient-6" cx="655.54" cy="28.72" fx="655.54" fy="28.72" r="277.13" gradientTransform="translate(24.78 -169.2) rotate(12.87)" xlink:href="#radial-gradient-4"/><radialGradient id="radial-gradient-7" cx="769.58" cy="116.12" fx="769.58" fy="116.12" r="99.68" gradientTransform="translate(24.78 -169.2) rotate(12.87)" xlink:href="#radial-gradient-2"/><linearGradient id="linear-gradient-11" x1="965.87" y1="1089.81" x2="896.2" y2="988.93" xlink:href="#linear-gradient"/><clipPath id="clippath"><rect x="779.41" y="870.27" width="90.62" height="64.1" rx="14" ry="14" fill="#fff"/></clipPath><linearGradient id="linear-gradient-12" x1="799.06" y1="904.39" x2="803.47" y2="903.75" xlink:href="#linear-gradient"/></defs><rect x="264.88" y="558.47" width="350.71" height="251.39" rx="47" ry="47" fill="url(#radial-gradient)"/><circle cx="334" cy="623.17" r="38.33" fill="#fff"/><path d="m300.11,736.38l63.78-43.77c2.07-1.42,4.83-1.32,6.79.25l53.23,42.6c2.14,1.71,5.19,1.66,7.27-.12l95.94-82.29c2.26-1.94,5.63-1.81,7.73.29l46.29,46.13c1.07,1.07,1.68,2.52,1.68,4.04v60.56c0,3.15-2.55,5.7-5.7,5.7h-273.78c-3.15,0-5.7-2.55-5.7-5.7v-22.98c0-1.88.93-3.64,2.47-4.7Z" fill="#fff"/><rect x="478.77" y="644.07" width="350.71" height="251.39" rx="47" ry="47" fill="url(#linear-gradient)"/><circle cx="547.89" cy="708.78" r="38.33" fill="#fff"/><path d="m514.01,821.99l63.78-43.77c2.07-1.42,4.83-1.32,6.79.25l53.23,42.6c2.14,1.71,5.19,1.66,7.27-.12l95.94-82.29c2.26-1.94,5.63-1.81,7.73.29l46.29,46.13c1.07,1.07,1.68,2.52,1.68,4.04v60.56c0,3.15-2.55,5.7-5.7,5.7h-273.78c-3.15,0-5.7-2.55-5.7-5.7v-22.98c0-1.88.93-3.64,2.47-4.7Z" fill="#fff"/><rect x="628.51" y="368.3" width="197.84" height="141.81" rx="26.51" ry="26.51" transform="translate(-90.12 207.53) rotate(-15.3)" fill="url(#linear-gradient-2)"/><circle cx="660.55" cy="421.83" r="21.62" fill="#fff"/><path d="m658.96,488.47l28.19-33.31c.91-1.08,2.43-1.44,3.73-.87l35.31,15.25c1.42.61,3.07.13,3.94-1.15l39.95-59.05c.94-1.39,2.79-1.82,4.25-.99l32.05,18.21c.74.42,1.29,1.12,1.51,1.95l9.01,32.95c.47,1.71-.54,3.48-2.25,3.95l-148.97,40.76c-1.71.47-3.48-.54-3.95-2.25l-3.42-12.51c-.28-1.02-.04-2.12.65-2.93Z" fill="#fff"/><path id="Path_95" d="m376.19,401.83l-29.91-28.25h-94.72s-23.26,4.99-26.59-19.94c-1.84-20.04-1.84-40.2,0-60.24,0,0-3.32-21.19,21.19-22.43,24.51-1.25,102.2,0,102.2,0,0,0,14.54,0,18.69,24.51,4.15,24.51,14.12,103.44,14.12,103.44,0,0,.83,8.31-4.99,2.91Z" fill="url(#radial-gradient-2)"/><path id="Path_96" d="m294.76,307.94s6.65-14.12,20.77-9.55c14.12,4.57,14.96,22.43,0,40.3-14.96,17.86-18.28,19.11-28.25,9.55-9.97-9.55-37.8-37.39-23.26-50.68,7.12-6.89,18.49-6.7,25.38.43.13.13.26.27.38.41,2.38,2.76,4.08,6.03,4.98,9.55Z" fill="#fafafa"/><path id="Path_95-2" d="m369.41,245.56l29.91-28.25h94.72s23.26,4.99,26.59-19.94c1.84-20.04,1.84-40.2,0-60.24,0,0,3.32-21.19-21.19-22.43-24.51-1.25-102.2,0-102.2,0,0,0-14.54,0-18.69,24.51-4.15,24.51-14.12,103.44-14.12,103.44,0,0-.83,8.31,4.99,2.91Z" fill="url(#radial-gradient-3)"/><path id="Path_96-2" d="m451.03,151.67s6.65-14.12,20.77-9.55c14.12,4.57,14.96,22.43,0,40.3-14.96,17.86-18.28,19.11-28.25,9.55-9.97-9.55-37.8-37.39-23.26-50.68,7.12-6.89,18.49-6.7,25.38.43.13.13.26.27.38.41,2.38,2.76,4.08,6.03,4.98,9.55Z" fill="#fafafa"/><path id="Path_96-3" d="m257.37,151.8s2.68-15.38,17.51-14.7c14.83.68,20.35,17.69,10.63,38.87-9.71,21.18-12.59,23.26-24.73,16.67-12.14-6.59-46.33-26.09-35.81-42.75,5.05-8.53,16.06-11.34,24.59-6.29.16.09.32.19.47.29,3.02,2.03,5.53,4.74,7.33,7.9Z" fill="url(#linear-gradient-3)"/><path id="Path_89" d="m222.38,406.84c-4.7,18.11-5.88,22.82,7.29,36.7,13.17,13.88,21.41,20.23,16.23,35.76s-8.94,21.41-12.47,33.87c-3.53,12.47-4.94,24.46-25.64,13.64s-39.05-11.53-37.17-27.76,3.29-25.41-3.53-32.23c-6.82-6.82-13.17-13.17-8-29.88,3.71-11.51,8.02-22.82,12.94-33.87l5.88,6.59s-12.23,16.23-12.23,33.87,12.23,13.64,12.23,27.05-2.35,19.76-1.88,30.82c.47,11.06,17.88,14.35,30.58,17.88s16,7.06,20-2.35c4-9.41,7.29-23.29,12-36.46s2.82-15.76-8.94-27.52c-11.76-11.76-17.17-21.41-17.17-32.46,0-6.79,1.37-13.5,4-19.76l5.88,6.12Z" fill="#100e26"/><path id="Path_100" d="m135.34,355.32c.51,17.21-.27,34.43-2.35,51.52-1.88,14.11-13.88,18.35-27.99,16-14.11-2.35-30.82-11.06-39.76-33.64-8.94-22.58-3.76-46.34,31.05-52.22,34.82-5.88,39.05,18.35,39.05,18.35Z" fill="#f0aa89"/><path id="Path_101" d="m171.81,394.37v-8c.03-6.62,5.38-11.97,12-12h26.82c6.62.03,11.97,5.38,12,12h0v20.23l-10.12,2.82h-40.7v-15.06h0Z" fill="#100e26"/><path id="Path_102" d="m179.57,382.29h19.05l3.53,21.17h-19.05l-3.53-21.17Z" fill="#1f82ab"/><path id="Path_103" d="m188.98,394.37c-3.53,8.23-6.35,14.58-6.59,20.7s-8.47,12.23-15.76,21.41c-7.29,9.17-31.05,36.23-31.05,36.23l-20.94-19.76s11.29-5.18,29.4-20.94,21.64-21.88,22.58-30.58c.44-5.05,2.32-9.86,5.41-13.88v6.82l5.88,5.88s2.12-7.06,11.06-5.88Z" fill="#f0aa89"/><circle id="Ellipse_9" cx="212.27" cy="384.96" r="3.76" fill="#1f82ab"/><path id="Path_104" d="m32.07,668.19c-1.18,23.99,2.59,63.28,0,95.74-2.59,32.46-4.94,55.99.94,101.62,5.88,45.64,9.88,60.22,5.65,72.92-4.23,12.7-3.76,29.4-3.76,29.4h30.82v-24.7c0-13.17-1.88-22.11,3.53-64.93,4.15-33.08,6.19-66.4,6.12-99.74,0-19.76,4.7-60.22,7.76-83.04,3.06-22.82-51.05-27.29-51.05-27.29Z" fill="#f0aa89"/><path id="Path_105" d="m98.88,719.94c7.29,27.05,12.7,44.46,12.7,60.22s.71,38.34,17.64,77.63c16.94,39.28,27.99,60.22,28.23,74.1.24,13.88-1.88,23.76,0,35.99h49.87s3.53-9.41-7.76-17.64c-11.29-8.23-16.94-7.53-17.88-19.52s-12.7-80.92-19.76-112.68c-7.06-31.76-12.7-51.28-14.82-98.09s-48.22,0-48.22,0Z" fill="#f0aa89"/><path id="Path_106" d="m32.54,977.53h35.52l3.53-13.64H29.25l3.29,13.64Z" fill="#302d4f"/><path id="Path_107" d="m156.99,977.53h53.63l2.82-13.64h-60.22l3.76,13.64Z" fill="#302d4f"/><path id="Path_108" d="m186.86,942.24v28.46h9.41v-23.29c0,.24-2.12-11.53-9.41-5.18Z" fill="#302d4f"/><path id="Path_109" d="m47.6,560.45c-8.94,27.76-20.47,52.93-27.05,93.39-4.04,22.82-5.62,46-4.7,69.16,0,0,19.76,13.17,66.81,10.82l4-40.93,9.88,41.17s44.46.94,69.87-17.17c0,0-10.35-52.93-19.52-89.63-6.07-23.21-14.83-45.63-26.11-66.81H47.6Z" fill="#8398b8"/><path id="Path_110" d="m149.46,477.41c13.64,14.35,27.99,27.99,27.99,27.99,0,0,6.35-12,14.82-31.52,8.47-19.52,14.35-35.05,14.82-41.87s-2.82-37.64-2.82-37.64c0,0,8.47-.71,10.35,9.41l7.76-12.7v-3.53s7.29-1.65,7.29,10.35-5.88,34.34-5.88,34.34c0,0-5.88,34.11-10.35,56.93-4.47,22.82-8.94,49.64-24.46,49.64s-41.64-17.41-62.34-37.4c.24,0-7.06-24.94,22.82-23.99Z" fill="#f0aa89"/><path id="Path_111" d="m98.88,438.83c23.99,4.23,45.64,23.05,60.22,43.52-6.36,12.69-17.03,22.7-30.11,28.23,0,0-4.7,33.17-8.47,49.87,0,0-43.52,13.17-72.92,0,0,0-7.29-44.46-8.94-64.22s16.23-70.1,60.22-57.4Z" fill="#a4afda"/><path id="Path_113" d="m106.17,312.27c-13.88-1.65-16.23-4.23-28.23,4.7s-16.94,6.12-21.64,12c-4.7,5.88-9.64,12.94-7.29,26.11,2.35,13.17-1.88,12-6.12,19.29-4.23,7.29-8.47,11.53-7.76,23.29.71,11.76,5.41,13.41,3.53,23.05q-1.88,9.64-3.76,20.47c-1.88,10.82-10.82,9.64-7.76,21.41,3.06,11.76,6.12,11.06,3.53,21.88-2.59,10.82-4.7,16.94,4.23,23.29,8.94,6.35,4.7,4.23,11.53,15.06,6.82,10.82,7.29,6.12,19.76,10.82,12.47,4.7,12-6.59,18.58-8.47s15.06-1.88,21.17-10.82c6.12-8.94,10.35-10.35,8.47-21.64-1.88-11.29-6.59-16.23.47-23.99,7.06-7.76,8-16.94,2.59-27.76-5.41-10.82-5.41-17.64.71-25.88,6.12-8.23,10.82-11.06,10.82-24.23,0,0-11.53-1.65-11.53-10.59s10.82-6.12,11.53,0c0,0-2.59-6.59,8.47-12.94,11.06-6.35,12-19.05,4.23-25.64s-12.7-12.7-14.35-19.76c-2.12-7.06-12-8.47-21.17-9.64Z" fill="#302d4f"/><path id="Path_129" d="m81.94,650.31c2.12,23.52,4.7,42.58,4.7,42.58-4.8-13.73-7.65-28.06-8.47-42.58-7.26-.11-14.5-.82-21.64-2.12l27.05-.94-1.65,3.06Z" fill="#196787"/><path id="Path_112" d="m528.36,232.29c-12.06,0-16.97,2.46-25.24,8.04-8.26,5.58-10.94,8.49-16.08,9.83-5.14,1.34-13.18,2.46-16.08,12.51-2.9,10.05-9.16,10.94-13.62,15.41-7.85,7.26-11.33,18.11-9.16,28.59,2.68,14.29-1.79,16.08-4.02,24.34s-.67,16.3,5.14,20.32c5.81,4.02,5.14,8.04,6.92,17.64s7.37,29.7,38.19,29.7,25.68.67,52.04,6.25c26.35,5.58,27.92-1.79,42.88-3.35s17.64-6.92,23.9-20.1c6.25-13.18,9.83-14.96,16.97-23.45,7.15-8.49,6.92-22.11,0-34.84-6.92-12.73-4.47-18.31-8.49-23.45-4.02-5.14-10.94-6.25-10.94-18.31s-1.12-18.76-12.06-26.8c-10.94-8.04-9.16-10.94-19.43-16.08-10.27-5.14-11.39-2.46-23.45-1.12-11.61,1.12-7.59-5.14-27.47-5.14Z" fill="#302d4f"/><path id="Path_114" d="m535.06,288.79c-6.92,10.27-14.96,7.37-22.11,15.41-7.15,8.04-6.92,19.43-6.92,22.78,0,0-2.68-5.81-6.92,0s2.79,16.85,7.28,12.95c0,0,.65,10.94,5.78,18.98,5.14,8.04,11.95,14.07,22.9,14.07s25.24-9.16,29.7-30.82c0,0,4.47.67,6.92-7.37,2.46-8.04-2.46-12.06-6.25-9.16-3.63-1.64-6.05-5.17-6.25-9.16-.67-6.92,2.68-12.51-5.14-16.75-8.26-4.24-16.53-4.02-18.98-10.94Z" fill="#f0aa89"/><path id="Path_115" d="m544.22,365.17c-1.79,6.25.89,16.75,9.6,16.75s15.41-7.82,29.26-26.13c13.85-18.31,16.97-20.99,18.76-24.79,5.36-11.49,11.47-22.6,18.31-33.28,10.27-16.75,20.32-28.81,20.32-33.95s-1.79-10.72-1.79-15.86c.31-3.71,1.62-7.26,3.8-10.27v-16.75c0-9.6,6.92-9.6,7.37-2.68s0,18.54,0,18.54c0,0,1.12,5.14,3.35-4.47,2.23-9.6,2.23-15.86,6.25-15.86s4.69,7.37,2.23,12.95c-1.53,3.05-2.29,6.42-2.23,9.83,0,0,7.59,3.8,3.8,13.62-3.8,9.83-10.05,12.06-13.18,23.23-3.13,11.17-10.5,35.29-16.97,46.45-6.48,11.17-10.72,10.72-13.62,22.11-2.9,11.39-19.21,36.85-27.69,49.36-8.49,12.51-11.17,9.6-12.95,23.9-1.79,14.29-2.9,36.63-12.06,43.33s-77.49-9.83-77.49-9.83c-3.77,7.95-7.95,15.7-12.51,23.23-8.71,14.74-9.6,8.93-12.51,20.99-2.9,12.06-24.34,40.2-32.61,48.46-8.26,8.26-8.93,6.25-11.17,10.72s-14.07,17.64-14.07,17.64c0,0-4.47-3.35-2.23-12.51-4.14.63-8.32.93-12.51.89-11.17.45-18.09,1.79-12.95-3.35s19.65-7.82,29.93-10.72c10.27-2.9,12.51-16.75,22.11-40.65,9.6-23.9,16.97-45.34,24.79-68.56,7.82-23.23,18.09-48.46,36.4-51.37,18.31-2.9,20.32-1.12,24.79-8.93,2.75-4.48,3.93-9.74,3.35-14.96l24.12,2.9Z" fill="#f0aa89"/><path id="Path_116" d="m479.9,545.17c-2.23,12.51,2.9,36.18,8.04,61.64,5.14,25.46,2.68,37.97,1.79,53.15-.89,15.19-6.03,38.64-1.12,46.45,4.91,7.82,20.99,15.63,26.58,14.96s1.79-17.2,0-38.19c-1.79-20.99,2.68-25.68,5.58-43.55,2.9-17.87,11.84-66.11,11.84-90.45s-14.96-33.95-30.82-27.47c-15.86,6.48-21.89,23.45-21.89,23.45Z" fill="#f0aa89"/><path id="Path_117" d="m536.4,595.65c1.12,18.76,3.35,46.23,2.9,60.08-.45,13.85-3.8,27.02-2.9,54.05.89,27.02,8.93,66.33,8.93,82.18s-.42,27.52,1.21,48.75c1.13,14.67,6.34,12.5,14.65,8.2,9.2-4.76,11.17-13.18,9.83-28.14s-6.03-18.76-2.68-42.43c3.35-23.67,7.82-52.71,8.04-81.96.22-29.26,1.79-39.08,2.68-53.6s2.9-64.32,4.69-85.76c1.79-21.44-47.35,38.64-47.35,38.64Z" fill="#f0aa89"/><ellipse id="Ellipse_10" cx="547.34" cy="333.08" rx="2.68" ry="4.69"/><ellipse id="Ellipse_11" cx="522.33" cy="332.34" rx="2.68" ry="4.69"/><path id="Path_118" d="m525.23,352.67h19.43s-.22,6.25-9.83,6.25-9.6-6.25-9.6-6.25Z" fill="#fafafa"/><path id="Path_119" d="m542.43,318.27l.89,2.68c2.15-.22,4.32-.22,6.48,0,1.59.27,3.15.64,4.69,1.12,0,0-2.68-4.02-6.03-4.47-2.03.01-4.05.24-6.03.67Z"/><path id="Path_120" d="m528.36,318.27l-.89,2.68c-2.15-.22-4.32-.22-6.48,0-1.59.27-3.15.64-4.69,1.12,0,0,2.68-4.02,6.03-4.47,2.03,0,4.05.23,6.03.67Z"/><path id="Path_121" d="m490.62,382.81s-2.23,12.06-4.47,29.48c-2.23,17.42-.89,32.16,2.68,39.08,3.57,6.92,11.17,22.11,6.03,35.51-5.14,13.4-32.16,57.84-21.89,76.38,0,0,1.12,6.03,7.37-4.69,6.25-10.72,16.3-20.99,29.48-15.86,13.18,5.14,18.09,9.6,20.55,29.48,2.46,19.88-2.23,41.32,12.51,45.11s25.46,3.35,34.39-5.14,6.25-14.96,9.83-36.85c3.57-21.89,2.23-36.18-8.49-56.95-10.72-20.77-16.75-23.67-14.74-37.3.9-6.91,2.47-13.72,4.69-20.32,0,0,6.7-5.58,8.04-20.32l1.12-14.52s-22.78,4.47-37.97-1.34c-15.19-5.81-28.36-16.53-30.15-45.11l-18.98,3.35Z" fill="url(#linear-gradient-4)"/><path id="Path_130" d="m568.56,460.76c-9.6,4.47-20.77.67-25.01-2.23,0,0,14.29,4.47,25.01,2.23Z" fill="url(#linear-gradient-5)"/><path id="Path_131" d="m491.73,457.41c5.81,2.01,12.06,4.47,26.35,0-8.73,1.38-17.62,1.38-26.35,0Z" fill="url(#linear-gradient-6)"/><path d="m247.47,978.48h201.03s14.34-41.59-46.94-27.89c0,0-23.87-45.75-75.13,13.3,0,0-41.94-16-78.97,14.59Z" fill="url(#linear-gradient-7)"/><path id="Path_125" d="m672.67,309.9s13.62-107.82,19.3-141.31c5.67-33.48,25.54-33.48,25.54-33.48,0,0,106.12-1.7,139.6,0,33.48,1.7,28.94,30.64,28.94,30.64,2.51,27.37,2.51,54.92,0,82.29-4.54,34.05-36.32,27.24-36.32,27.24h-129.39s-40.86,38.59-40.86,38.59c-7.95,7.38-6.81-3.97-6.81-3.97Z" fill="url(#linear-gradient-8)"/><circle cx="788.96" cy="205.33" r="53.19" fill="url(#linear-gradient-9)"/><circle cx="788.96" cy="205.33" r="47.68" fill="url(#linear-gradient-10)"/><path d="m793.61,171.18v7.84c9.16,1.54,14.8,7.33,14.95,15.75h-10.77c-.51-4.32-3.81-7.33-9.16-7.33-4.69,0-8.06,1.98-8.06,5.94,0,4.18,4.03,5.06,12.53,6.67,8.79,1.61,16.56,4.25,16.49,14.58-.07,8.5-6.23,14.58-15.97,15.9v7.69h-9.09v-7.77c-10.04-1.61-16.12-7.91-16.19-16.93l10.77.15c.37,4.98,4.32,8.43,10.62,8.43,5.06,0,8.79-2.2,8.79-6.23,0-4.32-4.18-5.2-12.75-6.89-8.65-1.61-16.27-4.4-16.27-14.8,0-7.99,5.79-13.92,15.02-15.24v-7.77h9.09Z" fill="#fff"/><path d="m788.87,150.65c-30.2,0-54.68,24.48-54.68,54.68s24.48,54.67,54.68,54.67,54.68-24.48,54.68-54.67-24.48-54.68-54.68-54.68Zm0,105.37c-28,0-50.7-22.69-50.7-50.69s22.7-50.7,50.7-50.7,50.7,22.7,50.7,50.7-22.7,50.69-50.7,50.69Z" fill="#fff"/><circle cx="609.63" cy="126.79" r="47.13" fill="url(#radial-gradient-4)"/><path d="m602.33,93.51l2.67,7.28c9.02-1.69,16.23,1.76,19.23,9.53l-10,3.67c-1.95-3.84-6.03-5.5-10.99-3.68-4.35,1.6-6.81,4.58-5.46,8.25,1.42,3.88,5.46,3.32,13.9,1.92,8.71-1.5,16.81-1.69,20.26,7.92,2.82,7.91-.82,15.65-9.41,20.19l2.62,7.14-8.43,3.09-2.64-7.21c-9.87,1.92-17.65-1.86-20.79-10.2l10.05-3.53c2.04,4.5,6.88,6.35,12.73,4.2,4.69-1.72,7.41-5.03,6.04-8.77-1.47-4.01-5.65-3.41-14.18-2.05-8.57,1.45-16.59,1.46-20.13-8.2-2.72-7.41.63-14.89,8.75-19.26l-2.64-7.21,8.43-3.09Z" fill="#fff"/><path d="m590.94,76.08c-28.03,10.28-42.42,41.33-32.14,69.36,10.27,28.02,41.33,42.41,69.35,32.13,28.03-10.28,42.42-41.33,32.14-69.35-10.28-28.03-41.33-42.42-69.36-32.14Zm34.17,93.19c-23.44,8.6-49.42-3.43-58.01-26.87-8.6-23.44,3.44-49.42,26.88-58.02,23.44-8.6,49.42,3.44,58.02,26.88,8.6,23.44-3.44,49.41-26.89,58.01Z" fill="url(#radial-gradient-5)"/><circle cx="735.13" cy="43.72" r="31.04" fill="url(#radial-gradient-6)"/><path d="m743.04,22.72l-1.14,4.98c5.59,2.31,8.33,6.8,7.2,12.17l-6.84-1.56c.3-2.82-1.36-5.2-4.75-5.98-2.98-.68-5.4.09-5.98,2.6-.61,2.65,1.83,3.79,6.99,6.05,5.35,2.3,9.9,5.1,8.35,11.65-1.28,5.38-6.07,8.35-12.45,7.78l-1.12,4.88-5.77-1.32,1.13-4.93c-6.14-2.48-9.08-7.36-7.82-13.09l6.82,1.66c-.49,3.22,1.52,5.98,5.52,6.89,3.21.73,5.9-.12,6.48-2.68.63-2.74-1.9-3.91-7.09-6.22-5.25-2.28-9.69-5.15-8.18-11.75,1.16-5.07,5.69-8,11.75-7.5l1.13-4.93,5.77,1.32Z" fill="#fff"/><path d="m743.01,9c-19.17-4.38-38.26,7.61-42.64,26.78s7.61,38.25,26.78,42.63c19.17,4.38,38.26-7.61,42.64-26.77,4.38-19.17-7.61-38.26-26.78-42.64Zm-14.56,63.74c-16.03-3.66-26.07-19.63-22.4-35.66s19.63-26.06,35.67-22.4c16.03,3.66,26.06,19.63,22.4,35.67s-19.63,26.06-35.67,22.39Z" fill="url(#radial-gradient-7)"/><circle cx="824.72" cy="885.44" r="88.7" fill="url(#linear-gradient-11)"/><path d="m826.58,900.67h-3.73c-9.71,0-17.61-7.89-17.61-17.61v-30.05c0-9.71,7.89-17.59,17.61-17.59h3.73c9.39,0,17.08,7.37,17.58,16.64l10.1-2.48c-1.69-13.78-13.45-24.47-27.68-24.47h-3.73c-15.39,0-27.9,12.51-27.9,27.9v30.05c0,15.39,12.51,27.9,27.9,27.9h3.73c13.54,0,24.87-9.7,27.37-22.51l-10.15-1.72c-1.69,7.95-8.77,13.93-17.22,13.93Z" fill="#fff"/><rect x="779.41" y="870.27" width="90.62" height="64.1" rx="14" ry="14" fill="#fff"/><g clip-path="url(#clippath)"><polygon points="779.64 870.27 779.41 892.24 779.41 870.27 779.64 870.27" fill="#fff"/><polygon points="781.61 870.27 780.94 934.38 779.41 934.38 779.41 892.24 779.64 870.27 781.61 870.27" fill="#fff"/><polygon points="783.59 870.27 782.91 934.38 780.94 934.38 781.61 870.27 783.59 870.27" fill="#fff"/><polygon points="785.56 870.27 784.89 934.38 782.91 934.38 783.59 870.27 785.56 870.27" fill="#fff"/><polygon points="787.53 870.27 786.86 934.38 784.89 934.38 785.56 870.27 787.53 870.27" fill="#fff"/><polygon points="789.5 870.27 788.83 934.38 786.86 934.38 787.53 870.27 789.5 870.27" fill="#fff"/><polygon points="791.47 870.27 790.8 934.38 788.83 934.38 789.5 870.27 791.47 870.27" fill="#fff"/><polygon points="793.44 870.27 792.77 934.38 790.8 934.38 791.47 870.27 793.44 870.27" fill="#fff"/><polygon points="795.41 870.27 794.74 934.38 792.77 934.38 793.44 870.27 795.41 870.27" fill="#fff"/><polygon points="797.38 870.27 796.71 934.38 794.74 934.38 795.41 870.27 797.38 870.27" fill="#fff"/><polygon points="799.36 870.27 798.68 934.38 796.71 934.38 797.38 870.27 799.36 870.27" fill="#fff"/><polygon points="801.33 870.27 800.66 934.38 798.68 934.38 799.36 870.27 801.33 870.27" fill="#fff"/><polygon points="803.3 870.27 802.63 934.38 800.66 934.38 801.33 870.27 803.3 870.27" fill="#fff"/><polygon points="805.27 870.27 804.6 934.38 802.63 934.38 803.3 870.27 805.27 870.27" fill="#fff"/><polygon points="807.24 870.27 806.57 934.38 804.6 934.38 805.27 870.27 807.24 870.27" fill="#fff"/><polygon points="809.21 870.27 808.54 934.38 806.57 934.38 807.24 870.27 809.21 870.27" fill="#fff"/><polygon points="811.18 870.27 810.51 934.38 808.54 934.38 809.21 870.27 811.18 870.27" fill="#fff"/><polygon points="813.15 870.27 812.48 934.38 810.51 934.38 811.18 870.27 813.15 870.27" fill="#fff"/><polygon points="815.13 870.27 814.45 934.38 812.48 934.38 813.15 870.27 815.13 870.27" fill="#fff"/><polygon points="817.1 870.27 816.43 934.38 814.45 934.38 815.13 870.27 817.1 870.27" fill="#fff"/><polygon points="819.07 870.27 818.4 934.38 816.43 934.38 817.1 870.27 819.07 870.27" fill="#fff"/><polygon points="821.04 870.27 820.37 934.38 818.4 934.38 819.07 870.27 821.04 870.27" fill="#fff"/><polygon points="823.01 870.27 822.34 934.38 820.37 934.38 821.04 870.27 823.01 870.27" fill="#fff"/><polygon points="824.98 870.27 824.31 934.38 822.34 934.38 823.01 870.27 824.98 870.27" fill="#fff"/><polygon points="826.95 870.27 826.28 934.38 824.31 934.38 824.98 870.27 826.95 870.27" fill="#fff"/><polygon points="828.92 870.27 828.25 934.38 826.28 934.38 826.95 870.27 828.92 870.27" fill="#fff"/><polygon points="830.9 870.27 830.22 934.38 828.25 934.38 828.92 870.27 830.9 870.27" fill="#fff"/><polygon points="832.87 870.27 832.2 934.38 830.22 934.38 830.9 870.27 832.87 870.27" fill="#fff"/><polygon points="834.84 870.27 834.17 934.38 832.2 934.38 832.87 870.27 834.84 870.27" fill="#fff"/><polygon points="836.81 870.27 836.14 934.38 834.17 934.38 834.84 870.27 836.81 870.27" fill="#fff"/><polygon points="838.78 870.27 838.11 934.38 836.14 934.38 836.81 870.27 838.78 870.27" fill="#fff"/><polygon points="840.75 870.27 840.08 934.38 838.11 934.38 838.78 870.27 840.75 870.27" fill="#fff"/><polygon points="842.72 870.27 842.05 934.38 840.08 934.38 840.75 870.27 842.72 870.27" fill="#fff"/><polygon points="844.69 870.27 844.02 934.38 842.05 934.38 842.72 870.27 844.69 870.27" fill="#fff"/><polygon points="846.67 870.27 845.99 934.38 844.02 934.38 844.69 870.27 846.67 870.27" fill="#fff"/><polygon points="848.64 870.27 847.97 934.38 845.99 934.38 846.67 870.27 848.64 870.27" fill="#fff"/><polygon points="850.61 870.27 849.94 934.38 847.97 934.38 848.64 870.27 850.61 870.27" fill="#fff"/><polygon points="852.58 870.27 851.91 934.38 849.94 934.38 850.61 870.27 852.58 870.27" fill="#fff"/><polygon points="854.55 870.27 853.88 934.38 851.91 934.38 852.58 870.27 854.55 870.27" fill="#fff"/><polygon points="856.52 870.27 855.85 934.38 853.88 934.38 854.55 870.27 856.52 870.27" fill="#fff"/><polygon points="858.49 870.27 857.82 934.38 855.85 934.38 856.52 870.27 858.49 870.27" fill="#fff"/><polygon points="860.46 870.27 859.79 934.38 857.82 934.38 858.49 870.27 860.46 870.27" fill="#fff"/><polygon points="862.44 870.27 861.76 934.38 859.79 934.38 860.46 870.27 862.44 870.27" fill="#fff"/><polygon points="864.41 870.27 863.74 934.38 861.76 934.38 862.44 870.27 864.41 870.27" fill="#fff"/><polygon points="866.38 870.27 865.71 934.38 863.74 934.38 864.41 870.27 866.38 870.27" fill="#fff"/><polygon points="868.35 870.27 867.68 934.38 865.71 934.38 866.38 870.27 868.35 870.27" fill="#fff"/><polygon points="870.03 897.86 869.65 934.38 867.68 934.38 868.35 870.27 870.03 870.27 870.03 897.86" fill="#fff"/><polygon points="869.65 934.38 870.03 897.86 870.03 934.38 869.65 934.38" fill="#fff"/></g><path d="m833.97,892.8c0-5.06-4.05-9.18-9.09-9.26-4.55-.08-8.62,3.34-9.3,7.83s1.9,8.64,6.02,10.12v15.91h0c2.06.53,4.22.55,6.28.06l.23-.06v-16c3.53-1.39,5.86-4.8,5.86-8.6Z" fill="url(#linear-gradient-12)"/></svg>